<svg xmlns="http://www.w3.org/2000/svg" viewBox="0 0 117.16 66.07"><defs><style>.cls-1{fill:#00a97a;}.cls-2{fill:#e30613;}.cls-3{fill:#ffed00;}.cls-4{fill:none;}.cls-5{fill:#555;}</style></defs><g id="Ebene_2" data-name="Ebene 2"><g id="Ebene_1-2" data-name="Ebene 1"><g id="logo"><path class="cls-1" d="M2.61,16.74h0A1.86,1.86,0,0,1,4.47,18.6V31.15A1.86,1.86,0,0,1,2.61,33h0A1.86,1.86,0,0,1,.75,31.15V18.6A1.86,1.86,0,0,1,2.61,16.74Z"/><path class="cls-2" d="M17.49,8.37h0a1.86,1.86,0,0,1,1.86,1.86V31.15A1.86,1.86,0,0,1,17.49,33h0a1.86,1.86,0,0,1-1.86-1.86V10.23A1.86,1.86,0,0,1,17.49,8.37Z"/><path class="cls-3" d="M10.05,14h0a2,2,0,0,1,2,2V46.33a2,2,0,0,1-2,2h0a2,2,0,0,1-2-2V16A2,2,0,0,1,10.05,14Z"/><path class="cls-3" d="M32.37,0h0a1.86,1.86,0,0,1,1.86,1.86V31.15A1.86,1.86,0,0,1,32.37,33h0a1.86,1.86,0,0,1-1.86-1.86V1.86A1.86,1.86,0,0,1,32.37,0Z"/><path class="cls-2" d="M39.81,1.54h0A1.86,1.86,0,0,1,41.67,3.4V25.17A1.86,1.86,0,0,1,39.81,27h0A1.86,1.86,0,0,1,38,25.17V3.4A1.86,1.86,0,0,1,39.81,1.54Z"/><path class="cls-1" d="M24.93,2.53h0a1.86,1.86,0,0,1,1.86,1.86V43.11A1.86,1.86,0,0,1,24.93,45h0a1.86,1.86,0,0,1-1.86-1.86V4.39A1.87,1.87,0,0,1,24.93,2.53Z"/><path class="cls-4" d="M0,17.37s9.87-.89,20.82-11.85S45.5,1.8,50.17,11.44"/><path class="cls-5" d="M3,62v4H1.19V55.25H5.27a4.14,4.14,0,0,1,2.84.93,3.13,3.13,0,0,1,1.05,2.46,3,3,0,0,1-1,2.44A4.34,4.34,0,0,1,5.25,62H3Zm0-1.5H5.27A2.2,2.2,0,0,0,6.78,60a1.7,1.7,0,0,0,.52-1.34,1.84,1.84,0,0,0-.53-1.38,2,2,0,0,0-1.45-.53H3Z"/><path class="cls-5" d="M15.21,59.61a4.32,4.32,0,0,0-.73-.06,1.63,1.63,0,0,0-1.65.94v5.42H11.05V58h1.7l0,.89a2,2,0,0,1,1.79-1,1.67,1.67,0,0,1,.63.1Z"/><path class="cls-5" d="M16.21,61.87a4.63,4.63,0,0,1,.46-2.1A3.43,3.43,0,0,1,18,58.33a3.62,3.62,0,0,1,1.92-.5,3.43,3.43,0,0,1,2.6,1,4,4,0,0,1,1.08,2.74V62a4.69,4.69,0,0,1-.45,2.09,3.32,3.32,0,0,1-1.29,1.43,3.65,3.65,0,0,1-1.94.51,3.41,3.41,0,0,1-2.68-1.12,4.29,4.29,0,0,1-1-3ZM18,62A3.2,3.2,0,0,0,18.5,64a1.66,1.66,0,0,0,1.41.69,1.61,1.61,0,0,0,1.4-.7,3.56,3.56,0,0,0,.5-2.06,3.08,3.08,0,0,0-.52-1.9,1.74,1.74,0,0,0-2.78,0A3.34,3.34,0,0,0,18,62Z"/><path class="cls-5" d="M25.25,61.89A4.69,4.69,0,0,1,26.1,59a2.73,2.73,0,0,1,2.28-1.11,2.59,2.59,0,0,1,2,.88V54.66H32.2V65.91H30.59l-.09-.82a2.63,2.63,0,0,1-2.13,1,2.69,2.69,0,0,1-2.25-1.12A4.87,4.87,0,0,1,25.25,61.89ZM27,62a3.32,3.32,0,0,0,.46,1.89,1.51,1.51,0,0,0,1.32.68,1.68,1.68,0,0,0,1.6-1V60.26a1.66,1.66,0,0,0-1.58-.95A1.5,1.5,0,0,0,27.5,60,3.62,3.62,0,0,0,27,62Z"/><path class="cls-5" d="M39,65.13a2.74,2.74,0,0,1-2.23.92,2.46,2.46,0,0,1-1.95-.75,3.21,3.21,0,0,1-.66-2.18V58H36V63.1c0,1,.42,1.51,1.25,1.51A1.76,1.76,0,0,0,39,63.68V58h1.78v7.92H39.06Z"/><path class="cls-5" d="M46.16,64.64a1.64,1.64,0,0,0,1.11-.39,1.31,1.31,0,0,0,.47-1h1.68A2.61,2.61,0,0,1,49,64.67a3,3,0,0,1-1.17,1,3.62,3.62,0,0,1-1.6.37A3.38,3.38,0,0,1,43.55,65a4.27,4.27,0,0,1-1-3v-.18a4.18,4.18,0,0,1,1-2.9,3.33,3.33,0,0,1,2.64-1.09,3.24,3.24,0,0,1,2.3.82,3,3,0,0,1,.93,2.16H47.74a1.63,1.63,0,0,0-.46-1.12,1.51,1.51,0,0,0-1.11-.44,1.55,1.55,0,0,0-1.33.63,3.25,3.25,0,0,0-.48,1.9v.29A3.24,3.24,0,0,0,44.82,64,1.55,1.55,0,0,0,46.16,64.64Z"/><path class="cls-5" d="M53.66,56.06V58h1.4v1.32h-1.4v4.42a1,1,0,0,0,.18.66.84.84,0,0,0,.64.2,2.62,2.62,0,0,0,.62-.07V65.9a4.53,4.53,0,0,1-1.17.17c-1.37,0-2-.75-2-2.26V59.32h-1.3V58h1.3V56.07h1.78Z"/><path class="cls-5" d="M56.79,55.93a1,1,0,0,1,.26-.68,1,1,0,0,1,.74-.27,1,1,0,0,1,.75.27.92.92,0,0,1,.26.68.94.94,0,0,1-.26.67,1,1,0,0,1-.75.27,1,1,0,0,1-.74-.27A.94.94,0,0,1,56.79,55.93Zm1.89,10H56.9V58h1.78Z"/><path class="cls-5" d="M60.58,61.87a4.63,4.63,0,0,1,.46-2.1,3.43,3.43,0,0,1,1.3-1.44,3.62,3.62,0,0,1,1.92-.5,3.43,3.43,0,0,1,2.6,1,4,4,0,0,1,1.08,2.74V62a4.69,4.69,0,0,1-.45,2.09,3.32,3.32,0,0,1-1.29,1.43,3.65,3.65,0,0,1-1.94.51,3.41,3.41,0,0,1-2.68-1.12,4.29,4.29,0,0,1-1-3Zm1.78.16A3.2,3.2,0,0,0,62.87,64a1.66,1.66,0,0,0,1.41.69,1.61,1.61,0,0,0,1.4-.7,3.56,3.56,0,0,0,.5-2.06,3.08,3.08,0,0,0-.52-1.9,1.74,1.74,0,0,0-2.78,0A3.34,3.34,0,0,0,62.36,62Z"/><path class="cls-5" d="M71.44,58l0,.92a2.84,2.84,0,0,1,2.31-1.06c1.65,0,2.49.94,2.52,2.83v5.24H74.54V60.79a1.63,1.63,0,0,0-.33-1.12,1.38,1.38,0,0,0-1.07-.36,1.7,1.7,0,0,0-1.6,1v5.64H69.76V58h1.68Z"/><path class="cls-5" d="M88.32,63.16a1.28,1.28,0,0,0-.5-1.08A6,6,0,0,0,86,61.31,9,9,0,0,1,84,60.45a2.75,2.75,0,0,1-1.46-2.39,2.58,2.58,0,0,1,1-2.12,4.23,4.23,0,0,1,2.73-.83,4.72,4.72,0,0,1,2,.41,3.14,3.14,0,0,1,1.37,1.17,3,3,0,0,1,.5,1.68H88.32a1.67,1.67,0,0,0-.52-1.31,2.14,2.14,0,0,0-1.5-.47,2.23,2.23,0,0,0-1.41.39,1.3,1.3,0,0,0-.5,1.08,1.17,1.17,0,0,0,.54,1,6.11,6.11,0,0,0,1.79.76,8.12,8.12,0,0,1,2,.84,3.38,3.38,0,0,1,1.11,1.08,2.88,2.88,0,0,1,.35,1.43,2.53,2.53,0,0,1-1,2.12,4.47,4.47,0,0,1-2.77.79,5.17,5.17,0,0,1-2.13-.43,3.62,3.62,0,0,1-1.51-1.18,2.94,2.94,0,0,1-.54-1.76h1.85a1.74,1.74,0,0,0,.6,1.41,2.63,2.63,0,0,0,1.72.5,2.28,2.28,0,0,0,1.45-.39A1.32,1.32,0,0,0,88.32,63.16Z"/><path class="cls-5" d="M96.9,65.13a2.74,2.74,0,0,1-2.23.92,2.46,2.46,0,0,1-2-.75,3.21,3.21,0,0,1-.66-2.18V58h1.78V63.1c0,1,.42,1.51,1.25,1.51a1.76,1.76,0,0,0,1.75-.93V58h1.78v7.92H96.94Z"/><path class="cls-5" d="M100.57,55.93a1,1,0,0,1,.26-.68,1,1,0,0,1,.74-.27,1,1,0,0,1,.75.27.92.92,0,0,1,.26.68.94.94,0,0,1-.26.67,1,1,0,0,1-.75.27,1,1,0,0,1-.74-.27A.94.94,0,0,1,100.57,55.93Zm1.89,10h-1.78V58h1.78Z"/><path class="cls-5" d="M107.18,56.06V58h1.4v1.32h-1.4v4.42a1,1,0,0,0,.18.66.84.84,0,0,0,.64.2,2.62,2.62,0,0,0,.62-.07V65.9a4.53,4.53,0,0,1-1.17.17c-1.37,0-2-.75-2-2.26V59.32h-1.3V58h1.3V56.07h1.78Z"/><path class="cls-5" d="M113.76,66.06A3.68,3.68,0,0,1,111,65a3.87,3.87,0,0,1-1-2.84v-.22a4.69,4.69,0,0,1,.46-2.12,3.44,3.44,0,0,1,1.29-1.45,3.38,3.38,0,0,1,1.85-.52,3.1,3.1,0,0,1,2.5,1,4.35,4.35,0,0,1,.88,2.92v.72h-5.18a2.33,2.33,0,0,0,.66,1.55,2,2,0,0,0,1.45.57,2.4,2.4,0,0,0,2-1l1,.92a3.23,3.23,0,0,1-1.27,1.1A4,4,0,0,1,113.76,66.06Zm-.21-6.79a1.49,1.49,0,0,0-1.18.51,2.72,2.72,0,0,0-.58,1.43h3.39v-.13a2.13,2.13,0,0,0-.48-1.35A1.46,1.46,0,0,0,113.55,59.27Z"/><path class="cls-5" d="M62.29,35.05H50.61V43.8H64.26v4H45.67V19.31H64.13v4H50.61v7.85H62.29Z"/><path class="cls-5" d="M85.07,41.12h-11l-2.3,6.62H66.62L77.36,19.3h4.43L92.55,47.74H87.39Zm-9.63-4h8.24l-4.12-11.8Z"/><path class="cls-5" d="M106.16,36.81h-5.51V47.75H95.71V19.31h10q4.92,0,7.6,2.21A7.79,7.79,0,0,1,116,27.91a8,8,0,0,1-1.38,4.78,8.8,8.8,0,0,1-3.84,3l6.39,11.84v.25h-5.29Zm-5.51-4h5.08a5.66,5.66,0,0,0,3.91-1.26,4.39,4.39,0,0,0,1.41-3.45,4.69,4.69,0,0,0-1.3-3.54,5.57,5.57,0,0,0-3.88-1.29h-5.21v9.54Z"/></g></g></g></svg>